<svg width="77" height="72" viewBox="0 0 77 72" fill="none" xmlns="http://www.w3.org/2000/svg">
<g id="Group 11157">
<path id="Union" fill-rule="evenodd" clip-rule="evenodd" d="M1.05073 35.417L0.900002 35.4466C0.900002 36 1.50576 41.4747 2.65518 45.0658C4.09196 49.5547 14.1494 71.9995 43.6035 71.9995C65.3278 71.9995 71.9034 57.2172 75.6123 48.8794C75.9263 48.1736 76.2197 47.514 76.5 46.9135C57.45 53.4667 57.1283 40.2524 56.8906 30.4848C56.835 28.2032 56.784 26.1096 56.5 24.5L56.3878 24.5221C55.1367 10.7718 43.5763 0 29.5 0H28.5C13.036 0 0.5 12.536 0.5 28V30.3158C0.5 32.0671 0.690079 33.774 1.05073 35.417Z" fill="#EBEBED"/>
<path id="Union (Stroke)" fill-rule="evenodd" clip-rule="evenodd" d="M0.80954 34.1548C0.824844 34.2487 0.840698 34.3424 0.857101 34.4359C0.885948 34.6003 0.916496 34.7642 0.948715 34.9275C0.981041 35.0912 1.01505 35.2544 1.05073 35.417L0.900002 35.4466C0.900002 35.4478 0.900009 35.4489 0.900009 35.4501C0.900612 35.5912 0.937958 36.0302 1.01112 36.6652L2.00455 36.5507C1.9925 36.4462 1.98148 36.3474 1.9715 36.2549L2.24657 36.2007L2.02747 35.2026C1.93989 34.8035 1.8628 34.4006 1.79652 33.9939L0.80954 34.1548ZM1.01743 35.4466H0.93914L0.938164 35.4417L1.01305 35.4244L1.01743 35.4466ZM1.34257 39.0915L2.33061 38.9374C2.44746 39.6862 2.58707 40.4949 2.74879 41.308L1.768 41.5031C1.60312 40.674 1.46114 39.8515 1.34257 39.0915ZM2.31395 43.8907L3.28062 43.6346C3.38485 44.0282 3.49393 44.4059 3.60759 44.761C3.71056 45.0827 3.86539 45.5162 4.07819 46.0431L3.15095 46.4176C2.93034 45.8713 2.76676 45.4144 2.65518 45.0658C2.53552 44.692 2.42175 44.2977 2.31395 43.8907ZM4.36456 49.064L5.25563 48.6101C5.64431 49.3732 6.10098 50.2049 6.63118 51.0841L5.77484 51.6005C5.23179 50.7 4.7636 49.8474 4.36456 49.064ZM7.35989 54.0369L8.17917 53.4635C8.6986 54.2057 9.26609 54.9656 9.88428 55.733L9.10552 56.3603C8.4726 55.5746 7.89164 54.7967 7.35989 54.0369ZM11.0036 58.5591L11.7378 57.8802C12.3623 58.5554 13.0272 59.2291 13.7345 59.8946L13.0492 60.6229C12.3245 59.941 11.6432 59.2507 11.0036 58.5591ZM15.2374 62.5409L15.8694 61.7659C16.5844 62.3491 17.3355 62.9203 18.1241 63.4745L17.549 64.2926C16.7404 63.7243 15.9703 63.1387 15.2374 62.5409ZM19.9858 65.8772L20.5003 65.0197C21.2932 65.4955 22.119 65.953 22.9788 66.3883L22.5272 67.2805C21.6456 66.8342 20.7988 66.3651 19.9858 65.8772ZM25.1673 68.5009L25.5545 67.579C26.4064 67.9367 27.2882 68.2726 28.2006 68.5836L27.878 69.5301C26.9436 69.2117 26.0403 68.8676 25.1673 68.5009ZM30.6596 70.3747L30.9182 69.4087C31.8151 69.6488 32.7391 69.8651 33.6907 70.0554L33.4947 71.036C32.5221 70.8415 31.5773 70.6203 30.6596 70.3747ZM36.3528 71.5169L36.489 70.5262C37.4076 70.6526 38.3501 70.7551 39.3169 70.8321L39.2375 71.8289C38.2519 71.7505 37.2905 71.6459 36.3528 71.5169ZM42.1371 71.9807L42.1629 70.981C42.6376 70.9933 43.1178 70.9995 43.6035 70.9995C44.1084 70.9995 44.6046 70.9913 45.0924 70.9753L45.1252 71.9748C44.6264 71.9911 44.1192 71.9995 43.6035 71.9995C43.1092 71.9995 42.6205 71.9931 42.1371 71.9807ZM48.1466 71.769L48.0421 70.7745C49.0517 70.6684 50.0207 70.5264 50.9512 70.3518L51.1357 71.3346C50.178 71.5144 49.1823 71.6602 48.1466 71.769ZM54.0855 70.6438L53.8129 69.6817C54.7839 69.4066 55.708 69.0933 56.588 68.7466L56.9546 69.677C56.0435 70.0359 55.0881 70.3598 54.0855 70.6438ZM59.7076 68.4216L59.2447 67.5351C60.1293 67.0731 60.9636 66.5749 61.7512 66.0467L62.3082 66.8772C61.4908 67.4254 60.6252 67.9423 59.7076 68.4216ZM64.7279 65.0549L64.0839 64.2899C64.8439 63.6501 65.5536 62.9816 66.2178 62.2924L66.9379 62.9864C66.2508 63.6992 65.5158 64.3916 64.7279 65.0549ZM68.9293 60.7083L68.1464 60.0862C68.7685 59.3033 69.3431 58.5058 69.8764 57.7039L70.7091 58.2577C70.1617 59.0808 69.5705 59.9013 68.9293 60.7083ZM72.2918 55.6761L71.4218 55.1832C71.9254 54.2943 72.3852 53.4139 72.8098 52.5558L73.7061 52.9993C73.2749 53.8708 72.8063 54.7681 72.2918 55.6761ZM74.9958 50.258L74.0845 49.8464C74.2979 49.3738 74.5017 48.9157 74.6986 48.4729L74.7011 48.4674C74.7745 48.3025 74.8469 48.1397 74.9183 47.9794L75.4449 48.2142L75.1762 47.3466C75.3656 47.2879 75.5571 47.2272 75.7505 47.1643C75.783 47.1537 75.8156 47.1431 75.8482 47.1324C76.063 47.062 76.2803 46.9891 76.5 46.9135C76.4257 47.0726 76.3505 47.2359 76.2742 47.4032C76.2538 47.448 76.2332 47.4932 76.2126 47.5386C76.1216 47.7391 76.0291 47.9449 75.9348 48.1557C75.8131 48.1949 75.6921 48.2332 75.5718 48.2708L75.8317 48.3867C75.7596 48.5482 75.6866 48.7125 75.6123 48.8794C75.4155 49.3218 75.2106 49.7824 74.9958 50.258ZM72.5094 48.067L72.7308 49.0422C71.7356 49.2682 70.7963 49.4308 69.9096 49.5336L69.7945 48.5402C70.6417 48.4421 71.5454 48.2859 72.5094 48.067ZM67.039 48.654L66.9955 49.653C65.9227 49.6063 64.942 49.4502 64.0468 49.192L64.3239 48.2312C65.135 48.4651 66.0366 48.6103 67.039 48.654ZM61.8341 47.068L61.266 47.8909C60.3955 47.2899 59.6697 46.5606 59.0656 45.7396L59.871 45.1469C60.4152 45.8866 61.0628 46.5354 61.8341 47.068ZM58.5483 42.732L57.6212 43.107C57.2617 42.2179 56.9831 41.2787 56.7653 40.3151L57.7407 40.0946C57.9491 41.0167 58.2129 41.9027 58.5483 42.732ZM57.2806 37.3733C57.1704 36.4653 57.0948 35.5428 57.0403 34.6226L56.042 34.6817C56.0974 35.6166 56.1746 36.5602 56.2878 37.4937L57.2806 37.3733ZM56.926 31.8629L55.9264 31.8914C55.9131 31.4245 55.9019 30.963 55.8909 30.5113L55.8909 30.5092C55.8784 29.998 55.8663 29.4997 55.8517 29.0145L56.8513 28.9845C56.8659 29.473 56.8781 29.9742 56.8906 30.4848C56.9016 30.9376 56.9128 31.3977 56.926 31.8629ZM56.6916 25.9879L55.6958 26.079C55.6835 25.9449 55.6704 25.8136 55.6564 25.6853L55.4925 25.7176L55.3919 24.6127C55.3502 24.1543 55.2966 23.6994 55.2314 23.2482L56.2212 23.1052C56.2751 23.4785 56.3214 23.8541 56.3599 24.2321C56.3696 24.3279 56.3789 24.4238 56.3876 24.5198C56.3877 24.5206 56.3877 24.5213 56.3878 24.5221L56.5 24.5C56.5007 24.5039 56.5014 24.5078 56.5021 24.5117C56.5295 24.6681 56.5548 24.829 56.5781 24.9942C56.5856 25.0479 56.593 25.102 56.6001 25.1566C56.6351 25.4234 56.6653 25.7009 56.6916 25.9879ZM55.6644 20.3085L54.6954 20.5556C54.4678 19.663 54.194 18.7888 53.8767 17.9359L54.8139 17.5872C55.1435 18.4733 55.4279 19.3813 55.6644 20.3085ZM53.6795 14.972L52.7845 15.418C52.3748 14.5961 51.9229 13.7988 51.4314 13.029L52.2743 12.4909C52.7846 13.2903 53.254 14.1183 53.6795 14.972ZM50.6156 10.1719L49.834 10.7956C49.2624 10.0793 48.6537 9.39381 48.0108 8.74209L48.7227 8.03983C49.3901 8.71645 50.0221 9.42815 50.6156 10.1719ZM46.6167 6.11791L45.9823 6.89093C45.2753 6.31076 44.5373 5.76718 43.771 5.26305L44.3207 4.42764C45.1163 4.95113 45.8827 5.51555 46.6167 6.11791ZM41.8592 2.98844L41.4008 3.8772C40.5904 3.45919 39.7552 3.08259 38.898 2.75016L39.2596 1.81782C40.15 2.16313 41.0175 2.55431 41.8592 2.98844ZM36.5507 0.929881L36.2902 1.89536C35.413 1.65869 34.5173 1.46676 33.6058 1.3222L33.7624 0.334544C34.7091 0.484684 35.6395 0.684031 36.5507 0.929881ZM30.9262 0.0370197L30.8742 1.03567C30.4192 1.01199 29.9611 1 29.5 1H29.25V0H29.5C29.9784 0 30.4539 0.0124419 30.9262 0.0370197ZM28.75 0V1H28.5C27.9913 1 27.486 1.01406 26.9844 1.04179L26.9292 0.0433204C27.4491 0.014567 27.9729 0 28.5 0H28.75ZM23.8075 0.391483L23.9739 1.37754C22.9699 1.54695 21.9848 1.77177 21.0219 2.04873L20.7455 1.08769C21.7444 0.800385 22.7662 0.567191 23.8075 0.391483ZM17.7819 2.12466L18.165 3.04838C17.2283 3.4368 16.3182 3.87646 15.4381 4.3639L14.9536 3.48911C15.8664 2.98358 16.8104 2.52755 17.7819 2.12466ZM12.2961 5.16233L12.8755 5.9774C12.0511 6.56335 11.261 7.19447 10.5088 7.86713L9.84222 7.12172C10.6221 6.42429 11.4413 5.76992 12.2961 5.16233ZM7.62171 9.34223L8.36713 10.0088C7.69447 10.761 7.06335 11.5511 6.4774 12.3755L5.66233 11.7961C6.26992 10.9413 6.92429 10.1221 7.62171 9.34223ZM3.98911 14.4536L4.8639 14.9381C4.37646 15.8182 3.9368 16.7283 3.54838 17.665L2.62466 17.2819C3.02756 16.3104 3.48357 15.3664 3.98911 14.4536ZM1.58769 20.2455L2.54873 20.5219C2.27177 21.4848 2.04695 22.4699 1.87754 23.4739L0.891479 23.3075C1.06718 22.2662 1.30038 21.2444 1.58769 20.2455ZM0.54332 26.4292L1.54179 26.4844C1.51406 26.986 1.5 27.4913 1.5 28V28.5789H0.5V28C0.5 27.4729 0.514565 26.9491 0.54332 26.4292ZM0.5 29.7368H1.5V30.3158C1.5 30.729 1.51104 31.1395 1.53282 31.547L0.534248 31.6004C0.511513 31.1751 0.5 30.7468 0.5 30.3158V29.7368Z" fill="#C6C5CF"/>
<path id="Ellipse 651 (Stroke)" fill-rule="evenodd" clip-rule="evenodd" d="M30.5052 38.4874C30.6381 38.1666 30.7448 37.8364 30.8246 37.5L18.1754 37.5C18.2552 37.8364 18.3619 38.1666 18.4948 38.4874C18.8214 39.2761 19.3002 39.9926 19.9038 40.5962C20.5074 41.1998 21.2239 41.6786 22.0126 42.0052C22.8012 42.3319 23.6464 42.5 24.5 42.5C25.3536 42.5 26.1988 42.3319 26.9874 42.0052C27.7761 41.6786 28.4926 41.1998 29.0962 40.5962C29.6998 39.9926 30.1786 39.2761 30.5052 38.4874ZM16.6419 37.5C16.5477 37.0068 16.5 36.5046 16.5 36L32.5 36C32.5 36.5046 32.4523 37.0068 32.3581 37.5C32.2562 38.0338 32.1 38.557 31.891 39.0615C31.489 40.0321 30.8997 40.914 30.1569 41.6569C29.414 42.3997 28.5321 42.989 27.5615 43.391C26.5909 43.7931 25.5506 44 24.5 44C23.4494 44 22.4091 43.7931 21.4385 43.391C20.4679 42.989 19.586 42.3997 18.8431 41.6569C18.1003 40.914 17.511 40.0321 17.109 39.0615C16.9 38.557 16.7438 38.0338 16.6419 37.5Z" fill="#908D9E"/>
<path id="Ellipse 652 (Stroke)" fill-rule="evenodd" clip-rule="evenodd" d="M19.75 23.25C20.1642 23.25 20.5 23.5858 20.5 24C20.5 25.5913 19.8679 27.1174 18.7426 28.2426C17.6174 29.3679 16.0913 30 14.5 30C12.9087 30 11.3826 29.3679 10.2574 28.2426C9.13214 27.1174 8.5 25.5913 8.5 24C8.5 23.5858 8.83579 23.25 9.25 23.25C9.66421 23.25 10 23.5858 10 24C10 25.1935 10.4741 26.3381 11.318 27.182C12.1619 28.0259 13.3065 28.5 14.5 28.5C15.6935 28.5 16.8381 28.0259 17.682 27.182C18.5259 26.3381 19 25.1935 19 24C19 23.5858 19.3358 23.25 19.75 23.25Z" fill="#908D9E"/>
<path id="Ellipse 653 (Stroke)" fill-rule="evenodd" clip-rule="evenodd" d="M41.75 23.25C42.1642 23.25 42.5 23.5858 42.5 24C42.5 25.5913 41.8679 27.1174 40.7426 28.2426C39.6174 29.3679 38.0913 30 36.5 30C34.9087 30 33.3826 29.3679 32.2574 28.2426C31.1321 27.1174 30.5 25.5913 30.5 24C30.5 23.5858 30.8358 23.25 31.25 23.25C31.6642 23.25 32 23.5858 32 24C32 25.1935 32.4741 26.3381 33.318 27.182C34.1619 28.0259 35.3065 28.5 36.5 28.5C37.6935 28.5 38.8381 28.0259 39.682 27.182C40.5259 26.3381 41 25.1935 41 24C41 23.5858 41.3358 23.25 41.75 23.25Z" fill="#908D9E"/>
</g>
</svg>
