<svg width="24" height="24" viewBox="0 0 24 24" fill="none" xmlns="http://www.w3.org/2000/svg">
<g id="ic_Search">
<path id="Vector" d="M15.4167 14.1667H14.7583L14.525 13.9417C15.3699 12.9617 15.8343 11.7106 15.8333 10.4167C15.8333 9.34535 15.5157 8.2981 14.9205 7.40733C14.3253 6.51656 13.4793 5.8223 12.4895 5.41232C11.4998 5.00235 10.4107 4.89508 9.35993 5.10408C8.3092 5.31309 7.34404 5.82897 6.58651 6.58651C5.82897 7.34404 5.31309 8.3092 5.10408 9.35993C4.89508 10.4107 5.00235 11.4998 5.41232 12.4895C5.8223 13.4793 6.51656 14.3253 7.40733 14.9205C8.2981 15.5157 9.34535 15.8333 10.4167 15.8333C11.7583 15.8333 12.9917 15.3417 13.9417 14.525L14.1667 14.7583V15.4167L18.3333 19.575L19.575 18.3333L15.4167 14.1667ZM10.4167 14.1667C8.34167 14.1667 6.66667 12.4917 6.66667 10.4167C6.66667 8.34167 8.34167 6.66667 10.4167 6.66667C12.4917 6.66667 14.1667 8.34167 14.1667 10.4167C14.1667 12.4917 12.4917 14.1667 10.4167 14.1667Z" fill="#B2B2B8"/>
</g>
</svg>
